<svg
   width="249.45332"
   height="288.04001"
   viewBox="0 0 249.45332 288.04001"><defs
     id="defs6"><clipPath
       clipPathUnits="userSpaceOnUse"
       id="clipPath20"><path
         d="M 215.422,540.082 H 1655.46 V 1980.13 H 215.422 Z"
         id="path18"/></clipPath></defs><g
     id="g10"
     transform="matrix(1.3333333,0,0,-1.3333333,0,288.04)"><g
       id="g12"
       transform="scale(0.1)"><g
         id="g14"><g
           id="g16"
           clip-path="url(#clipPath20)"><path
             d="m 1655.45,1260.1 c 0,-397.659 -322.35,-720.01 -720.016,-720.01 -397.661,0 -720.02,322.351 -720.02,720.01 0,397.66 322.359,720.02 720.02,720.02 397.666,0 720.016,-322.36 720.016,-720.02"
             style="fill:#ed1c24;fill-opacity:1;fill-rule:evenodd;stroke:none"
             id="path22"/></g></g><path
         d="M 311.813,1620.24 935.434,540.102 1559.05,1620.24 Z"
         style="fill:#ffffff;fill-opacity:1;fill-rule:nonzero;stroke:none"
         id="path24" /><path
         d="m 255.969,355.941 c 0,4.911 -1.91,7.098 -6.559,7.098 h -23.801 c -4.929,0 -6.839,-2.187 -6.839,-7.098 V 219.43 c 0,-22.969 16.957,-44.578 66.468,-44.578 49.508,0 66.473,21.609 66.473,44.578 v 136.511 c 0,4.911 -1.375,7.098 -6.289,7.098 h -23.805 c -4.918,0 -6.566,-2.187 -6.566,-7.098 V 226 c 0,-13.68 -11.481,-20.512 -29.813,-20.512 -18.328,0 -29.269,6.832 -29.269,20.512 z m 265.609,0.258 c 0,4.653 -1.652,6.84 -6.566,6.84 h -21.614 c -4.921,0 -6.562,-2.187 -6.562,-6.84 v -109.41 c 0,0 -4.648,11.223 -9.297,19.152 l -54.988,94.368 c -1.09,1.91 -2.731,2.73 -5.742,2.73 h -21.61 c -4.922,0 -6.57,-2.187 -6.57,-6.84 V 183.871 c 0,-4.641 1.648,-6.84 6.57,-6.84 h 21.61 c 4.921,0 6.558,2.199 6.558,6.84 v 109.16 c 0.281,-0.84 3.563,-9.859 10.949,-22.16 l 52.793,-90.551 c 1.368,-2.468 2.731,-3.289 6.289,-3.289 h 21.614 c 4.914,0 6.566,2.199 6.566,6.84 z M 646.859,309.43 c 0,-4.649 1.637,-6.828 6.289,-6.828 h 22.981 c 4.922,0 6.832,2.179 6.832,6.828 v 11.211 c 0,22.98 -15.316,44.589 -63.18,44.589 -47.871,0 -62.105,-21.609 -62.105,-44.589 V 304.5 c 0,-16.41 11.773,-30.359 24.902,-35.27 l 42.387,-15.878 c 12.316,-4.653 23.262,-9.02 23.262,-20.243 v -8.75 c 0,-13.41 -10.668,-19.687 -28.997,-19.687 -18.601,0 -29,6.277 -29,19.687 v 12.313 c 0,4.918 -1.64,7.117 -6.562,7.117 h -22.98 c -4.649,0 -6.563,-2.199 -6.563,-7.117 V 219.43 c 0,-22.969 16.68,-44.578 65.371,-44.578 48.973,0 65.113,21.609 65.113,44.578 v 21.082 c 0,20.226 -13.679,32.808 -32.281,39.379 l -47.601,16.961 c -4.372,1.636 -11.211,5.187 -11.211,14.769 v 4.098 c 0,13.402 9.023,19.691 26.8,19.691 17.512,0 26.543,-6.289 26.543,-19.691 z M 818.906,177.031 c 4.934,0 6.84,1.918 6.84,6.84 v 17.238 c 0,4.922 -1.906,6.563 -6.84,6.563 h -65.918 v 50.879 h 58.539 c 4.922,0 7.11,1.918 7.11,6.558 v 16.422 c 0,4.918 -2.188,6.559 -7.11,6.559 h -58.539 v 44.32 h 63.188 c 4.652,0 6.844,1.91 6.844,6.84 v 17.23 c 0,4.918 -2.192,6.559 -6.844,6.559 h -93.547 c -4.93,0 -6.57,-2.187 -6.57,-7.098 V 184.148 c 0,-4.918 1.64,-7.117 6.57,-7.117 z m 101.211,70.848 h 1.641 l 26.812,-63.731 c 1.91,-4.378 3.012,-7.117 6.84,-7.117 h 24.07 c 4.915,0 8.208,2.739 6.29,7.117 l -29.54,68.934 c 21.875,7.93 30.086,23.258 30.086,39.387 v 25.98 c 0,22.981 -16.687,44.59 -66.199,44.59 h -57.441 c -4.926,0 -6.567,-2.187 -6.567,-7.098 V 184.148 c 0,-4.918 1.641,-7.117 6.567,-7.117 h 23.804 c 4.915,0 6.555,2.199 6.555,7.117 v 63.731 z m 0,84.531 c 18.328,0 29.539,-6.84 29.539,-20.519 v -12.86 c 0,-13.672 -11.211,-20.511 -29.539,-20.511 h -27.082 v 53.89 z m 190.093,23.531 c 0,4.911 -1.64,7.098 -6.55,7.098 h -23.81 c -4.91,0 -6.55,-2.187 -6.55,-7.098 V 184.148 c 0,-4.918 1.64,-7.117 6.55,-7.117 h 23.81 c 4.91,0 6.55,2.199 6.55,7.117 v 73.043 h 59.1 v -73.043 c 0,-4.918 1.64,-7.117 6.56,-7.117 h 23.8 c 4.93,0 6.57,2.199 6.57,7.117 v 171.793 c 0,4.911 -1.64,7.098 -6.57,7.098 h -23.8 c -4.92,0 -6.56,-2.187 -6.56,-7.098 V 287.82 h -59.1 z m 237.16,-178.91 c 4.93,0 6.85,1.918 6.85,6.84 v 17.238 c 0,4.922 -1.92,6.563 -6.85,6.563 h -65.91 v 50.879 H 1340 c 4.92,0 7.11,1.918 7.11,6.558 v 16.422 c 0,4.918 -2.19,6.559 -7.11,6.559 h -58.54 v 44.32 h 63.19 c 4.65,0 6.83,1.91 6.83,6.84 v 17.23 c 0,4.918 -2.18,6.559 -6.83,6.559 h -93.56 c -4.92,0 -6.56,-2.187 -6.56,-7.098 V 184.148 c 0,-4.918 1.64,-7.117 6.56,-7.117 z m 140.06,0 c 4.92,0 6.84,1.918 6.84,6.84 v 17.238 c 0,4.922 -1.92,6.563 -6.84,6.563 h -65.93 v 50.879 h 58.55 c 4.92,0 7.11,1.918 7.11,6.558 v 16.422 c 0,4.918 -2.19,6.559 -7.11,6.559 h -58.55 v 44.32 h 63.2 c 4.65,0 6.83,1.91 6.83,6.84 v 17.23 c 0,4.918 -2.18,6.559 -6.83,6.559 h -93.55 c -4.93,0 -6.57,-2.187 -6.57,-7.098 V 184.148 c 0,-4.918 1.64,-7.117 6.57,-7.117 z m 101.21,70.848 h 1.63 l 26.82,-63.731 c 1.91,-4.378 3.01,-7.117 6.84,-7.117 H 1648 c 4.92,0 8.21,2.739 6.29,7.117 l -29.54,68.934 c 21.88,7.93 30.08,23.258 30.08,39.387 v 25.98 c 0,22.981 -16.69,44.59 -66.19,44.59 h -57.44 c -4.93,0 -6.57,-2.187 -6.57,-7.098 V 184.148 c 0,-4.918 1.64,-7.117 6.57,-7.117 h 23.8 c 4.92,0 6.56,2.199 6.56,7.117 v 63.731 z m 0,84.531 c 18.33,0 29.53,-6.84 29.53,-20.519 v -12.86 c 0,-13.672 -11.2,-20.511 -29.53,-20.511 h -27.08 v 53.89 h 27.08"
         style="fill:#231f20;fill-opacity:1;fill-rule:nonzero;stroke:none"
         id="path26" /></g></g></svg>