<svg width="147" height="64" viewBox="0 0 147 64" fill="none" xmlns="http://www.w3.org/2000/svg">
<line x1="100.972" y1="54.06" x2="111.814" y2="24.2732" stroke-width="4" stroke-linecap="round"/>
<path d="M111.979 24.2329C106.815 22.3533 107.335 17.7675 108.799 13.7461C110.547 8.94265 122.712 13.965 121.156 18.2437C119.599 22.5224 117.143 26.1124 111.979 24.2329Z"/>
<path d="M112.74 2.91723C112.929 2.39825 113.503 2.13067 114.022 2.31956L124.499 6.1331C125.018 6.32199 125.286 6.89583 125.097 7.41481L121.156 18.2437L108.799 13.7461L112.74 2.91723Z"/>
<path d="M23.328 46.8983C23.072 46.8983 22.816 46.8503 22.56 46.7543L3.408 38.1623C2.864 37.9063 2.432 37.5703 2.112 37.1543C1.824 36.7063 1.68 36.2103 1.68 35.6663V35.2823C1.68 34.7383 1.824 34.2583 2.112 33.8423C2.432 33.3943 2.864 33.0423 3.408 32.7863L22.56 24.1943C22.816 24.0983 23.072 24.0503 23.328 24.0503C23.872 24.0503 24.32 24.2423 24.672 24.6263C25.056 24.9783 25.248 25.4263 25.248 25.9703C25.248 26.3543 25.12 26.7223 24.864 27.0743C24.64 27.3943 24.336 27.6343 23.952 27.7943L6.672 35.4743L23.952 43.1543C24.336 43.3143 24.64 43.5703 24.864 43.9223C25.12 44.2423 25.248 44.5943 25.248 44.9783C25.248 45.5223 25.056 45.9863 24.672 46.3703C24.32 46.7223 23.872 46.8983 23.328 46.8983ZM33.7958 60.9623C33.1878 60.9623 32.6758 60.7383 32.2598 60.2903C31.8438 59.8743 31.6358 59.3623 31.6358 58.7543V27.1223C31.6358 26.5143 31.8438 26.0023 32.2598 25.5863C32.6758 25.1703 33.1878 24.9623 33.7958 24.9623C34.4038 24.9623 34.9158 25.1703 35.3318 25.5863C35.7798 26.0023 36.0038 26.5143 36.0038 27.1223V28.3703C38.3398 25.9383 41.0758 24.7223 44.2118 24.7223C46.1958 24.7223 48.0678 25.2343 49.8278 26.2583C51.6198 27.2503 53.0598 28.7223 54.1478 30.6743C55.2678 32.5943 55.8278 34.8503 55.8278 37.4423C55.8278 40.0343 55.2678 42.3063 54.1478 44.2583C53.0598 46.1783 51.6198 47.6503 49.8278 48.6743C48.0678 49.6663 46.1958 50.1623 44.2118 50.1623C41.0758 50.1623 38.3398 48.9463 36.0038 46.5143V58.7543C36.0038 59.3943 35.7958 59.9223 35.3798 60.3383C34.9638 60.7543 34.4358 60.9623 33.7958 60.9623ZM43.5878 46.0823C45.9558 46.0823 47.8598 45.3303 49.2998 43.8263C50.7398 42.3223 51.4598 40.1943 51.4598 37.4423C51.4598 34.6903 50.7398 32.5623 49.2998 31.0583C47.8598 29.5543 45.9558 28.8023 43.5878 28.8023C42.1158 28.8023 40.7238 29.1383 39.4118 29.8103C38.1318 30.4503 36.9958 31.3143 36.0038 32.4023V42.4823C36.9958 43.5703 38.1318 44.4503 39.4118 45.1223C40.7238 45.7623 42.1158 46.0823 43.5878 46.0823ZM69.837 50.1623C66.637 50.1623 63.725 49.4423 61.101 48.0023C60.557 47.6183 60.285 47.0903 60.285 46.4183C60.285 45.9063 60.461 45.4583 60.813 45.0743C61.165 44.6903 61.613 44.4983 62.157 44.4983C62.445 44.4983 62.733 44.5623 63.021 44.6903C64.045 45.1383 65.069 45.4903 66.093 45.7463C67.117 46.0023 68.269 46.1303 69.549 46.1303C73.101 46.1303 74.877 44.9943 74.877 42.7223C74.877 41.9863 74.461 41.4263 73.629 41.0423C72.829 40.6583 71.501 40.2263 69.645 39.7463C67.757 39.2983 66.189 38.8343 64.941 38.3543C63.725 37.8743 62.669 37.1543 61.773 36.1943C60.909 35.2023 60.477 33.9063 60.477 32.3063C60.477 30.0663 61.277 28.2423 62.877 26.8343C64.509 25.4263 66.829 24.7223 69.837 24.7223C72.301 24.7223 74.621 25.1223 76.797 25.9223C77.245 26.0503 77.581 26.2903 77.805 26.6423C78.061 26.9943 78.189 27.3623 78.189 27.7463C78.189 28.2583 77.997 28.7063 77.613 29.0903C77.261 29.4743 76.813 29.6663 76.269 29.6663C76.109 29.6663 75.901 29.6343 75.645 29.5703C73.789 28.9943 71.965 28.7063 70.173 28.7063C68.445 28.7063 67.085 29.0263 66.093 29.6663C65.133 30.2743 64.653 31.0743 64.653 32.0663C64.653 33.0263 65.101 33.7303 65.997 34.1783C66.893 34.6263 68.285 35.0583 70.173 35.4743C72.061 35.9543 73.597 36.4343 74.781 36.9143C75.965 37.3623 76.973 38.0823 77.805 39.0743C78.669 40.0663 79.101 41.3943 79.101 43.0583C79.101 45.1063 78.285 46.8023 76.653 48.1463C75.053 49.4903 72.781 50.1623 69.837 50.1623ZM123.106 46.8983C122.562 46.8983 122.098 46.7223 121.714 46.3703C121.362 45.9863 121.186 45.5223 121.186 44.9783C121.186 44.5943 121.298 44.2423 121.522 43.9223C121.778 43.5703 122.098 43.3143 122.482 43.1543L139.762 35.4743L122.482 27.7943C122.098 27.6343 121.778 27.3943 121.522 27.0743C121.298 26.7223 121.186 26.3543 121.186 25.9703C121.186 25.4263 121.362 24.9783 121.714 24.6263C122.098 24.2423 122.562 24.0503 123.106 24.0503C123.394 24.0503 123.65 24.0983 123.874 24.1943L143.026 32.7863C143.57 33.0423 143.986 33.3943 144.274 33.8423C144.594 34.2583 144.754 34.7383 144.754 35.2823V35.6663C144.754 36.2103 144.594 36.7063 144.274 37.1543C143.986 37.5703 143.57 37.9063 143.026 38.1623L123.874 46.7543C123.65 46.8503 123.394 46.8983 123.106 46.8983Z"/>
</svg>
