<svg xmlns="http://www.w3.org/2000/svg" viewBox="0 0 1440 320"><path fill-opacity="1" d="M0,320L15,272C30,224,60,128,90,85.3C120,43,150,53,180,90.7C210,128,240,192,270,213.3C300,235,330,213,360,181.3C390,149,420,107,450,112C480,117,510,171,540,208C570,245,600,267,630,240C660,213,690,139,720,96C750,53,780,43,810,69.3C840,96,870,160,900,192C930,224,960,224,990,224C1020,224,1050,224,1080,208C1110,192,1140,160,1170,138.7C1200,117,1230,107,1260,101.3C1290,96,1320,96,1350,101.3C1380,107,1410,117,1425,122.7L1440,128L1440,320L1425,320C1410,320,1380,320,1350,320C1320,320,1290,320,1260,320C1230,320,1200,320,1170,320C1140,320,1110,320,1080,320C1050,320,1020,320,990,320C960,320,930,320,900,320C870,320,840,320,810,320C780,320,750,320,720,320C690,320,660,320,630,320C600,320,570,320,540,320C510,320,480,320,450,320C420,320,390,320,360,320C330,320,300,320,270,320C240,320,210,320,180,320C150,320,120,320,90,320C60,320,30,320,15,320L0,320Z"></path></svg>